# Blender 3.6.7
# www.blender.org
o Cube
v -0.613624 -0.814535 0.221640
v -0.591218 -0.845568 0.221640
v -0.591218 -0.814535 0.229467
v -0.610631 -0.830031 0.221640
v -0.610631 -0.814535 0.225548
v -0.607723 -0.829375 0.225383
v -0.591218 -0.841422 0.225548
v -0.602406 -0.841422 0.221640
v -0.601933 -0.837395 0.225383
v -0.602406 -0.814535 0.228421
v -0.591218 -0.830031 0.228421
v -0.601933 -0.829375 0.227406
v -0.613624 0.868404 0.221640
v -0.591218 0.868404 0.229467
v -0.591218 0.899437 0.221640
v -0.610631 0.868404 0.225548
v -0.610631 0.883900 0.221640
v -0.607723 0.883244 0.225383
v -0.591218 0.883900 0.228421
v -0.602406 0.868404 0.228421
v -0.601933 0.883244 0.227406
v -0.602406 0.895291 0.221640
v -0.591218 0.895291 0.225548
v -0.601933 0.891264 0.225383
v -0.613624 -0.814535 -0.202862
v -0.591218 -0.814535 -0.210690
v -0.591218 -0.845568 -0.202862
v -0.610631 -0.814535 -0.206771
v -0.610631 -0.830031 -0.202862
v -0.607723 -0.829375 -0.206606
v -0.591218 -0.830031 -0.209644
v -0.602406 -0.814535 -0.209644
v -0.601933 -0.829375 -0.208629
v -0.602406 -0.841422 -0.202862
v -0.591218 -0.841422 -0.206771
v -0.601933 -0.837395 -0.206606
v -0.613624 0.868404 -0.202862
v -0.591218 0.899437 -0.202862
v -0.591218 0.868404 -0.210690
v -0.610631 0.883900 -0.202862
v -0.610631 0.868404 -0.206771
v -0.607723 0.883244 -0.206606
v -0.591218 0.895291 -0.206771
v -0.602406 0.895291 -0.202862
v -0.601933 0.891264 -0.206606
v -0.602406 0.868404 -0.209644
v -0.591218 0.883900 -0.209644
v -0.601933 0.883244 -0.208629
v 0.646272 -0.814535 0.221640
v 0.623867 -0.814535 0.229467
v 0.623867 -0.845568 0.221640
v 0.643279 -0.814535 0.225548
v 0.643279 -0.830031 0.221640
v 0.640371 -0.829375 0.225383
v 0.623867 -0.830031 0.228421
v 0.635055 -0.814535 0.228421
v 0.634581 -0.829375 0.227406
v 0.635055 -0.841422 0.221640
v 0.623867 -0.841422 0.225548
v 0.634581 -0.837395 0.225383
v 0.646272 0.868404 0.221640
v 0.623867 0.899437 0.221640
v 0.623867 0.868404 0.229467
v 0.643279 0.883900 0.221640
v 0.643279 0.868404 0.225548
v 0.640371 0.883244 0.225383
v 0.623867 0.895291 0.225548
v 0.635055 0.895291 0.221640
v 0.634581 0.891264 0.225383
v 0.635055 0.868404 0.228421
v 0.623867 0.883900 0.228421
v 0.634581 0.883244 0.227406
v 0.646272 -0.814535 -0.202862
v 0.623867 -0.845568 -0.202862
v 0.623867 -0.814535 -0.210690
v 0.643279 -0.830031 -0.202862
v 0.643279 -0.814535 -0.206771
v 0.640371 -0.829375 -0.206606
v 0.623867 -0.841422 -0.206771
v 0.635055 -0.841422 -0.202862
v 0.634581 -0.837395 -0.206606
v 0.635055 -0.814535 -0.209644
v 0.623867 -0.830031 -0.209644
v 0.634581 -0.829375 -0.208629
v 0.623867 0.868404 -0.210690
v 0.623867 0.899437 -0.202862
v 0.646272 0.868404 -0.202862
v 0.623867 0.883900 -0.209644
v 0.635055 0.868404 -0.209644
v 0.634581 0.883244 -0.208629
v 0.635055 0.895291 -0.202862
v 0.623867 0.895291 -0.206771
v 0.634581 0.891264 -0.206606
v 0.643279 0.868404 -0.206771
v 0.643279 0.883900 -0.202862
v 0.640371 0.883244 -0.206606
v 0.576212 -0.845568 -0.202862
v 0.576212 -0.814535 -0.210690
v 0.576212 -0.841410 -0.206776
v 0.576212 -0.830051 -0.209641
v -0.543564 -0.814535 -0.210690
v -0.543564 -0.845568 -0.202862
v -0.543564 -0.830051 -0.209641
v -0.543564 -0.841410 -0.206776
v -0.543564 0.899437 -0.202862
v -0.543564 0.868404 -0.210690
v -0.543564 0.895279 -0.206776
v -0.543564 0.883921 -0.209641
v 0.576212 0.868404 -0.210690
v 0.576212 0.899437 -0.202862
v 0.576212 0.883921 -0.209641
v 0.576212 0.895279 -0.206776
v -0.543564 -0.845568 0.221640
v -0.543564 -0.814535 0.229467
v -0.543564 -0.841410 0.225553
v -0.543564 -0.830051 0.228418
v 0.576212 -0.814535 0.229467
v 0.576212 -0.845568 0.221640
v 0.576212 -0.830051 0.228418
v 0.576212 -0.841410 0.225553
v 0.576212 0.899437 0.221640
v 0.576212 0.868404 0.229467
v 0.576212 0.895279 0.225553
v 0.576212 0.883921 0.228418
v -0.543564 0.868404 0.229467
v -0.543564 0.899437 0.221640
v -0.543564 0.883921 0.228418
v -0.543564 0.895279 0.225553
v -0.591218 0.837372 0.229467
v -0.613624 0.837372 0.221640
v -0.602421 0.837372 0.228418
v -0.610622 0.837372 0.225553
v -0.613624 -0.783502 0.221640
v -0.591218 -0.783502 0.229467
v -0.610622 -0.783502 0.225553
v -0.602421 -0.783502 0.228418
v -0.591218 -0.783502 -0.210690
v -0.613624 -0.783502 -0.202862
v -0.602421 -0.783502 -0.209641
v -0.610622 -0.783502 -0.206776
v -0.613624 0.837372 -0.202862
v -0.591218 0.837372 -0.210690
v -0.610622 0.837372 -0.206776
v -0.602421 0.837372 -0.209641
v 0.646272 -0.783502 -0.202862
v 0.623867 -0.783502 -0.210690
v 0.643270 -0.783502 -0.206776
v 0.635069 -0.783502 -0.209641
v 0.623867 0.837372 -0.210690
v 0.646272 0.837372 -0.202862
v 0.635069 0.837372 -0.209641
v 0.643270 0.837372 -0.206776
v 0.623867 -0.783502 0.229467
v 0.646272 -0.783502 0.221640
v 0.635069 -0.783502 0.228418
v 0.643270 -0.783502 0.225553
v 0.646272 0.837372 0.221640
v 0.623867 0.837372 0.229467
v 0.643270 0.837372 0.225553
v 0.635069 0.837372 0.228418
v 0.576212 -0.752470 0.221640
v 0.553806 -0.783502 0.221640
v 0.598618 -0.814535 0.229467
v 0.572887 -0.767701 0.221640
v 0.579504 -0.772194 0.225465
v 0.576192 -0.778317 0.225346
v 0.568047 -0.788062 0.225465
v 0.564803 -0.778898 0.221640
v 0.572468 -0.783475 0.225346
v 0.587669 -0.794811 0.228317
v 0.584377 -0.799371 0.228317
v 0.579973 -0.788712 0.227449
v 0.576212 0.806339 0.221640
v 0.598618 0.868404 0.229467
v 0.553806 0.837372 0.221640
v 0.579504 0.826063 0.225465
v 0.572887 0.821571 0.221640
v 0.576192 0.832187 0.225346
v 0.584377 0.853240 0.228317
v 0.587669 0.848680 0.228317
v 0.579973 0.842581 0.227449
v 0.564803 0.832767 0.221640
v 0.568047 0.841931 0.225465
v 0.572468 0.837344 0.225346
v -0.521158 0.837372 0.221640
v -0.565969 0.868404 0.229467
v -0.543564 0.806339 0.221640
v -0.535399 0.841931 0.225465
v -0.532155 0.832767 0.221640
v -0.539820 0.837344 0.225346
v -0.555021 0.848680 0.228317
v -0.551729 0.853240 0.228317
v -0.547325 0.842581 0.227449
v -0.540239 0.821570 0.221639
v -0.546856 0.826063 0.225465
v -0.543544 0.832187 0.225346
v -0.543564 -0.752470 0.221640
v -0.565969 -0.814535 0.229467
v -0.521158 -0.783502 0.221640
v -0.546856 -0.772194 0.225465
v -0.540239 -0.767701 0.221640
v -0.543544 -0.778318 0.225346
v -0.551729 -0.799371 0.228317
v -0.555021 -0.794811 0.228317
v -0.547325 -0.788711 0.227449
v -0.532155 -0.778898 0.221639
v -0.535399 -0.788062 0.225465
v -0.539820 -0.783475 0.225346
v -0.543564 -0.752470 -0.202862
v -0.521158 -0.783502 -0.202862
v -0.565969 -0.814535 -0.210690
v -0.540239 -0.767701 -0.202862
v -0.546856 -0.772194 -0.206687
v -0.543544 -0.778318 -0.206569
v -0.535399 -0.788062 -0.206687
v -0.532155 -0.778898 -0.202862
v -0.539820 -0.783475 -0.206569
v -0.555021 -0.794811 -0.209540
v -0.551729 -0.799371 -0.209540
v -0.547325 -0.788711 -0.208672
v -0.543564 0.806339 -0.202862
v -0.565969 0.868404 -0.210690
v -0.521158 0.837372 -0.202862
v -0.546856 0.826063 -0.206687
v -0.540239 0.821571 -0.202862
v -0.543544 0.832187 -0.206569
v -0.551729 0.853240 -0.209540
v -0.555021 0.848680 -0.209540
v -0.547325 0.842581 -0.208672
v -0.532155 0.832767 -0.202862
v -0.535399 0.841931 -0.206687
v -0.539820 0.837344 -0.206569
v 0.553806 0.837372 -0.202862
v 0.598618 0.868404 -0.210690
v 0.576212 0.806339 -0.202862
v 0.568047 0.841931 -0.206687
v 0.564803 0.832767 -0.202862
v 0.572468 0.837344 -0.206569
v 0.587669 0.848680 -0.209540
v 0.584377 0.853240 -0.209540
v 0.579973 0.842581 -0.208672
v 0.572887 0.821570 -0.202862
v 0.579504 0.826063 -0.206687
v 0.576192 0.832187 -0.206569
v 0.576212 -0.752470 -0.202862
v 0.598618 -0.814535 -0.210690
v 0.553806 -0.783502 -0.202862
v 0.579504 -0.772194 -0.206687
v 0.572887 -0.767701 -0.202862
v 0.576192 -0.778318 -0.206569
v 0.584377 -0.799371 -0.209540
v 0.587669 -0.794811 -0.209540
v 0.579973 -0.788711 -0.208672
v 0.564803 -0.778898 -0.202862
v 0.568047 -0.788062 -0.206687
v 0.572468 -0.783475 -0.206569
vn -1.0000 -0.0000 -0.0000
vn 1.0000 -0.0000 -0.0000
vn -0.0000 -0.0000 1.0000
vn -0.0000 -1.0000 -0.0000
vn -0.0000 1.0000 -0.0000
vn -0.0000 -0.0000 -1.0000
vn -0.7760 -0.1543 0.6116
vn -0.6541 -0.4723 0.5908
vn -0.2495 -0.6541 0.7141
vn -0.1063 -0.2432 0.9641
vn -0.0955 -0.0690 0.9930
vn -0.3289 -0.0749 0.9414
vn -0.3208 -0.2316 0.9184
vn -0.7760 0.1543 0.6116
vn -0.3289 0.0749 0.9414
vn -0.0955 0.0690 0.9930
vn -0.1063 0.2432 0.9641
vn -0.2495 0.6541 0.7141
vn -0.6541 0.4723 0.5908
vn -0.3208 0.2316 0.9184
vn -0.7760 -0.1543 -0.6116
vn -0.3289 -0.0749 -0.9414
vn -0.0955 -0.0690 -0.9930
vn -0.1063 -0.2432 -0.9641
vn -0.2495 -0.6541 -0.7141
vn -0.6541 -0.4723 -0.5908
vn -0.3208 -0.2316 -0.9184
vn -0.7760 0.1543 -0.6116
vn -0.6541 0.4723 -0.5908
vn -0.2495 0.6541 -0.7141
vn -0.1063 0.2432 -0.9641
vn -0.0955 0.0690 -0.9930
vn -0.3289 0.0749 -0.9414
vn -0.3208 0.2316 -0.9184
vn 0.7760 -0.1543 0.6116
vn 0.3289 -0.0749 0.9414
vn 0.0955 -0.0690 0.9930
vn 0.1063 -0.2432 0.9641
vn 0.2495 -0.6541 0.7141
vn 0.6541 -0.4723 0.5908
vn 0.3208 -0.2316 0.9184
vn 0.7760 0.1543 0.6116
vn 0.6541 0.4723 0.5908
vn 0.2495 0.6541 0.7141
vn 0.1063 0.2432 0.9641
vn 0.0955 0.0690 0.9930
vn 0.3289 0.0749 0.9414
vn 0.3208 0.2316 0.9184
vn 0.7760 -0.1543 -0.6116
vn 0.6541 -0.4723 -0.5908
vn 0.2495 -0.6541 -0.7141
vn 0.1063 -0.2432 -0.9641
vn 0.0955 -0.0690 -0.9930
vn 0.3289 -0.0749 -0.9414
vn 0.3208 -0.2316 -0.9184
vn 0.0955 0.0690 -0.9930
vn 0.1063 0.2432 -0.9641
vn 0.2495 0.6541 -0.7141
vn 0.6541 0.4723 -0.5908
vn 0.7760 0.1543 -0.6116
vn 0.3289 0.0749 -0.9414
vn 0.3208 0.2316 -0.9184
vn -0.4295 0.1285 0.8939
vn -0.3119 0.2252 0.9230
vn -0.1849 0.3221 0.9285
vn -0.1604 0.0639 0.9850
vn -0.0540 0.0390 0.9978
vn -0.0889 0.1163 0.9892
vn -0.1816 0.1311 0.9746
vn -0.4295 -0.1285 0.8939
vn -0.0889 -0.1163 0.9892
vn -0.0540 -0.0390 0.9978
vn -0.1604 -0.0639 0.9850
vn -0.1849 -0.3221 0.9285
vn -0.3119 -0.2252 0.9230
vn -0.1816 -0.1311 0.9746
vn 0.1849 -0.3221 0.9285
vn 0.1604 -0.0639 0.9850
vn 0.0540 -0.0390 0.9978
vn 0.0889 -0.1163 0.9892
vn 0.4295 -0.1285 0.8939
vn 0.3119 -0.2252 0.9230
vn 0.1816 -0.1311 0.9746
vn 0.4295 0.1285 0.8939
vn 0.0889 0.1163 0.9892
vn 0.0540 0.0390 0.9978
vn 0.1604 0.0639 0.9850
vn 0.1849 0.3221 0.9285
vn 0.3119 0.2252 0.9230
vn 0.1816 0.1311 0.9746
vn 0.4295 0.1285 -0.8939
vn 0.3119 0.2252 -0.9230
vn 0.1849 0.3221 -0.9285
vn 0.1604 0.0639 -0.9850
vn 0.0540 0.0390 -0.9978
vn 0.0889 0.1163 -0.9892
vn 0.1816 0.1311 -0.9746
vn 0.4295 -0.1285 -0.8939
vn 0.0889 -0.1163 -0.9892
vn 0.0540 -0.0390 -0.9978
vn 0.1604 -0.0639 -0.9850
vn 0.1849 -0.3221 -0.9285
vn 0.3119 -0.2252 -0.9230
vn 0.1816 -0.1311 -0.9746
vn -0.1849 -0.3221 -0.9285
vn -0.1604 -0.0639 -0.9850
vn -0.0540 -0.0390 -0.9978
vn -0.0889 -0.1163 -0.9892
vn -0.4295 -0.1285 -0.8939
vn -0.3119 -0.2252 -0.9230
vn -0.1816 -0.1311 -0.9746
vn -0.4295 0.1285 -0.8939
vn -0.0889 0.1163 -0.9892
vn -0.0540 0.0390 -0.9978
vn -0.1604 0.0639 -0.9850
vn -0.1849 0.3221 -0.9285
vn -0.3119 0.2252 -0.9230
vn -0.1816 0.1311 -0.9746
vn -0.3475 -0.9377 -0.0000
vn -0.8108 -0.5854 -0.0000
vn -0.9818 -0.1897 -0.0000
vn -0.3475 0.9377 -0.0000
vn -0.8108 0.5854 -0.0000
vn -0.9818 0.1897 -0.0000
vn -0.0000 -0.6857 -0.7279
vn -0.0000 -0.2446 -0.9696
vn -0.0000 -0.0674 -0.9977
vn -0.0000 0.6857 -0.7279
vn -0.0000 0.2446 -0.9696
vn -0.0000 0.0674 -0.9977
vn 0.3475 -0.9377 -0.0000
vn 0.8108 -0.5854 -0.0000
vn 0.9818 -0.1897 -0.0000
vn 0.3475 0.9377 -0.0000
vn 0.8108 0.5854 -0.0000
vn 0.9818 0.1897 -0.0000
vn -0.0000 -0.6857 0.7279
vn -0.0000 -0.2446 0.9696
vn -0.0000 -0.0674 0.9977
vn -0.0000 0.6857 0.7279
vn -0.0000 0.2446 0.9696
vn -0.0000 0.0674 0.9977
vn -0.0000 -0.6854 -0.7281
vn -0.0000 0.6854 -0.7281
vn -0.0000 -0.6854 0.7281
vn -0.0000 0.6854 0.7281
vn 0.1045 -0.0000 -0.9945
vn 0.3298 -0.0000 -0.9440
vn 0.7579 -0.0000 -0.6523
vn -0.0000 -0.0756 -0.9971
vn -0.0000 -0.6427 -0.7661
vn -0.1045 -0.0000 -0.9945
vn -0.3298 -0.0000 -0.9440
vn -0.7579 -0.0000 -0.6523
vn -0.0000 0.0756 -0.9971
vn -0.0000 0.6427 -0.7661
vn -0.7935 -0.0000 -0.6086
vn -0.0932 -0.0000 -0.9956
vn -0.1045 -0.0000 0.9945
vn -0.3298 -0.0000 0.9440
vn -0.7579 -0.0000 0.6523
vn -0.0000 -0.0756 0.9971
vn -0.0000 -0.6427 0.7661
vn 0.1045 -0.0000 0.9945
vn 0.3298 -0.0000 0.9440
vn 0.7579 -0.0000 0.6523
vn -0.0000 0.0756 0.9971
vn -0.0000 0.6427 0.7661
vn 0.7935 -0.0000 0.6086
vn 0.0932 -0.0000 0.9956
vn -0.7935 -0.0000 0.6086
vn -0.0932 -0.0000 0.9956
vn 0.0932 -0.0000 -0.9956
vn 0.7935 -0.0000 -0.6086
vn -0.7937 -0.0001 0.6083
vn -0.3298 0.0001 0.9440
vn -0.0931 -0.0000 0.9957
vn -0.3298 -0.0001 0.9440
vn -0.7937 0.0001 0.6083
vn -0.0931 -0.0000 -0.9957
vn -0.3298 -0.0001 -0.9440
vn -0.7937 0.0001 -0.6083
vn -0.3298 0.0001 -0.9440
vn -0.7937 -0.0001 -0.6083
vn 0.7937 0.0001 -0.6083
vn 0.3298 -0.0001 -0.9440
vn 0.0931 -0.0000 -0.9957
vn 0.3298 0.0001 -0.9440
vn 0.7937 -0.0001 -0.6083
vn 0.0931 -0.0000 0.9957
vn 0.3298 0.0001 0.9440
vn 0.7937 -0.0001 0.6083
vn 0.3298 -0.0001 0.9440
vn 0.7937 0.0001 0.6083
vn -0.9770 0.2132 -0.0000
vn -0.3862 0.9224 -0.0000
vn 0.9770 0.2132 -0.0000
vn 0.3862 0.9224 -0.0000
vn -0.3862 -0.9224 -0.0000
vn -0.9770 -0.2132 -0.0000
vn 0.3862 -0.9224 -0.0000
vn 0.9770 -0.2132 -0.0000
vt 0.379446 0.004446
vt 0.383892 0.004446
vt 0.383892 0.245554
vt 0.379446 0.245554
vt 0.379446 0.504446
vt 0.383892 0.504446
vt 0.383892 0.745554
vt 0.379446 0.745554
vt 0.616108 0.504446
vt 0.620554 0.504446
vt 0.620554 0.745554
vt 0.616108 0.745554
vt 0.616108 0.004446
vt 0.620554 0.004446
vt 0.620554 0.245554
vt 0.616108 0.245554
vt 0.379446 0.776650
vt 0.383892 0.776650
vt 0.379446 0.806683
vt 0.379446 0.833333
vt 0.620554 0.943317
vt 0.620554 0.916667
vt 0.620554 0.973350
vt 0.616108 0.973350
vt 0.616108 0.776650
vt 0.620554 0.776650
vt 0.620554 0.833333
vt 0.620554 0.806683
vt 0.379446 0.831666
vt 0.379446 0.918334
vt 0.379446 0.916667
vt 0.379446 0.943317
vt 0.383892 0.973350
vt 0.379446 0.973350
vt 0.620554 0.331666
vt 0.620554 0.333333
vt 0.620554 0.416667
vt 0.620554 0.418334
vt 0.620554 0.831666
vt 0.620554 0.918334
vt 0.208333 0.504446
vt 0.291667 0.504446
vt 0.291667 0.745554
vt 0.208333 0.745554
vt 0.620554 0.443317
vt 0.620554 0.473350
vt 0.616108 0.473350
vt 0.708333 0.504446
vt 0.791667 0.504446
vt 0.791667 0.745554
vt 0.708333 0.745554
vt 0.291667 0.504446
vt 0.348350 0.504446
vt 0.348350 0.745554
vt 0.291667 0.745554
vt 0.620554 0.943317
vt 0.616108 0.973350
vt 0.383892 0.973350
vt 0.379446 0.943317
vt 0.379446 0.416667
vt 0.379446 0.443317
vt 0.383892 0.473350
vt 0.379446 0.473350
vt 0.616108 0.276650
vt 0.620554 0.276650
vt 0.620554 0.306683
vt 0.379446 0.333333
vt 0.379446 0.331666
vt 0.379446 0.418334
vt 0.651650 0.504446
vt 0.708333 0.504446
vt 0.708333 0.745554
vt 0.651650 0.745554
vt 0.848350 0.504446
vt 0.848350 0.745554
vt 0.620554 0.443317
vt 0.379446 0.443317
vt 0.616108 0.344816
vt 0.616108 0.422968
vt 0.616108 0.827032
vt 0.616108 0.905184
vt 0.611662 0.424077
vt 0.388338 0.424077
vt 0.388338 0.825923
vt 0.611662 0.825923
vt 0.616108 0.004446
vt 0.383892 0.004446
vt 0.616108 0.776650
vt 0.620554 0.806683
vt 0.379446 0.806683
vt 0.383892 0.776650
vt 0.620554 0.306683
vt 0.379446 0.306683
vt 0.383892 0.276650
vt 0.379446 0.276650
vt 0.379446 0.306683
vt 0.383892 0.422968
vt 0.383892 0.344816
vt 0.383892 0.905184
vt 0.383892 0.827032
vt 0.388338 0.343707
vt 0.611662 0.343707
vt 0.611662 0.906293
vt 0.388338 0.906293
vt 0.375000 0.004446
vt 0.375000 0.002320
vt 0.379446 0.002226
vt 0.125000 0.745554
vt 0.138343 0.745554
vt 0.138906 0.747680
vt 0.125000 0.747680
vt 0.151650 0.745554
vt 0.151650 0.747774
vt 0.151650 0.750000
vt 0.138906 0.750000
vt 0.379446 1.000000
vt 0.375000 0.986094
vt 0.375000 0.973350
vt 0.379446 0.000000
vt 0.375000 0.000000
vt 0.620554 0.002226
vt 0.622680 0.002320
vt 0.622774 0.004446
vt 0.620554 0.000000
vt 0.622680 0.000000
vt 0.622774 0.973350
vt 0.622680 1.000000
vt 0.620554 1.000000
vt 0.625000 0.973350
vt 0.625000 1.000000
vt 0.875000 0.745554
vt 0.875000 0.747680
vt 0.848350 0.750000
vt 0.625000 0.004446
vt 0.625000 0.002320
vt 0.379446 0.247774
vt 0.375000 0.247680
vt 0.375000 0.245554
vt 0.379446 0.263343
vt 0.375000 0.263906
vt 0.375000 0.276650
vt 0.151650 0.500000
vt 0.151650 0.502226
vt 0.138906 0.502320
vt 0.138906 0.500000
vt 0.151650 0.504446
vt 0.138343 0.504446
vt 0.125000 0.504446
vt 0.125000 0.502320
vt 0.622774 0.245554
vt 0.622680 0.247680
vt 0.620554 0.247774
vt 0.625000 0.245554
vt 0.625000 0.247680
vt 0.848350 0.500000
vt 0.875000 0.502320
vt 0.875000 0.504446
vt 0.625000 0.276650
vt 0.622774 0.276650
vt 0.622680 0.263906
vt 0.625000 0.250000
vt 0.620554 0.263343
vt 0.622680 0.248829
vt 0.379446 0.747774
vt 0.377320 0.747680
vt 0.377226 0.745554
vt 0.379446 0.763343
vt 0.375000 0.763906
vt 0.375000 0.776650
vt 0.348350 0.750000
vt 0.348350 0.747774
vt 0.361094 0.747680
vt 0.361094 0.750000
vt 0.361657 0.745554
vt 0.367981 0.747680
vt 0.622774 0.745554
vt 0.622680 0.747680
vt 0.620554 0.747774
vt 0.638343 0.745554
vt 0.638906 0.750000
vt 0.651650 0.750000
vt 0.625000 0.776650
vt 0.622774 0.776650
vt 0.622680 0.763906
vt 0.625000 0.763906
vt 0.620554 0.763343
vt 0.622680 0.757019
vt 0.377226 0.504446
vt 0.377320 0.502320
vt 0.379446 0.502226
vt 0.361657 0.504446
vt 0.361094 0.502320
vt 0.348350 0.502226
vt 0.348350 0.500000
vt 0.361094 0.500000
vt 0.379446 0.486657
vt 0.375000 0.486094
vt 0.375000 0.473350
vt 0.367981 0.502320
vt 0.622774 0.473350
vt 0.622680 0.486094
vt 0.620554 0.486657
vt 0.625000 0.473350
vt 0.625000 0.486094
vt 0.638343 0.504446
vt 0.638906 0.500000
vt 0.651650 0.500000
vt 0.622774 0.504446
vt 0.622680 0.502320
vt 0.620554 0.502226
vt 0.622680 0.492981
vt 0.386156 0.825924
vt 0.384635 0.829432
vt 0.385512 0.829544
vt 0.383892 0.826406
vt 0.383892 0.829579
vt 0.383892 0.829920
vt 0.381618 0.823622
vt 0.383146 0.828860
vt 0.382272 0.819706
vt 0.614488 0.829544
vt 0.615365 0.829432
vt 0.613844 0.825923
vt 0.617728 0.832481
vt 0.616854 0.833053
vt 0.618382 0.832726
vt 0.616108 0.829920
vt 0.616108 0.829579
vt 0.616108 0.826406
vt 0.616108 0.910986
vt 0.616108 0.911058
vt 0.616108 0.905810
vt 0.618382 0.926378
vt 0.616854 0.921140
vt 0.617728 0.930294
vt 0.614488 0.911362
vt 0.615365 0.911205
vt 0.613844 0.906293
vt 0.385512 0.911362
vt 0.384635 0.911205
vt 0.386156 0.906293
vt 0.382272 0.917519
vt 0.383146 0.916946
vt 0.381618 0.917274
vt 0.383892 0.910986
vt 0.383892 0.911058
vt 0.383892 0.905810
vt 0.386156 0.343707
vt 0.384635 0.338795
vt 0.385512 0.338638
vt 0.383892 0.344190
vt 0.383892 0.338942
vt 0.383892 0.339014
vt 0.381618 0.323622
vt 0.383146 0.328860
vt 0.382272 0.319706
vt 0.614488 0.338638
vt 0.615365 0.338795
vt 0.613844 0.343707
vt 0.617728 0.332481
vt 0.616854 0.333053
vt 0.618381 0.332726
vt 0.616108 0.339014
vt 0.616108 0.338942
vt 0.616108 0.344190
vt 0.616108 0.420080
vt 0.616108 0.420421
vt 0.616108 0.423594
vt 0.618382 0.426378
vt 0.616854 0.421140
vt 0.617728 0.430294
vt 0.614488 0.420456
vt 0.615365 0.420568
vt 0.613844 0.424077
vt 0.385512 0.420456
vt 0.384635 0.420568
vt 0.386156 0.424077
vt 0.382272 0.417519
vt 0.383146 0.416947
vt 0.381618 0.417274
vt 0.383892 0.420080
vt 0.383892 0.420421
vt 0.383892 0.423594
vt 0.208333 0.502223
vt 0.208333 0.500000
vt 0.375000 0.333333
vt 0.708333 0.500000
vt 0.625000 0.416667
vt 0.622777 0.416667
vt 0.291667 0.747777
vt 0.291667 0.750000
vt 0.375000 0.833333
vt 0.791667 0.750000
vt 0.625000 0.916667
vt 0.622777 0.916667
vt 0.291667 0.502223
vt 0.291667 0.500000
vt 0.375000 0.416667
vt 0.208333 0.502223
vt 0.291667 0.502223
vt 0.791667 0.500000
vt 0.625000 0.333333
vt 0.622777 0.333333
vt 0.208333 0.747777
vt 0.208333 0.750000
vt 0.375000 0.916667
vt 0.291667 0.747777
vt 0.208333 0.747777
vt 0.708333 0.750000
vt 0.625000 0.833333
vt 0.622777 0.833333
vt 0.617728 0.319706
vt 0.618382 0.417274
vt 0.382272 0.430294
vt 0.381618 0.332726
vt 0.616108 0.247777
vt 0.383892 0.247777
vt 0.616108 0.263325
vt 0.383892 0.263325
vt 0.617728 0.819706
vt 0.618382 0.917274
vt 0.382272 0.930294
vt 0.381618 0.832726
vt 0.616108 0.747777
vt 0.383892 0.747777
vt 0.616108 0.763325
vt 0.383892 0.763325
vt 0.383892 0.002223
vt 0.616108 0.002223
vt 0.383892 0.000000
vt 0.616108 0.000000
vt 0.616108 1.000000
vt 0.383892 1.000000
vt 0.616108 0.486675
vt 0.383892 0.486675
vt 0.616108 0.502223
vt 0.383892 0.502223
s 0
f 1/1/1 133/2/1 138/3/1 25/4/1
f 73/5/2 145/6/2 154/7/2 49/8/2
f 150/9/2 87/10/2 61/11/2 157/12/2
f 130/13/1 13/14/1 37/15/1 141/16/1
f 50/17/3 153/18/3 163/19/3 117/20/3
f 186/21/3 125/22/3 14/23/3 129/24/3
f 158/25/3 63/26/3 122/27/3 174/28/3
f 117/20/4 163/29/4 198/30/4 114/31/4
f 114/31/3 198/32/3 134/33/3 3/34/3
f 222/35/5 106/36/5 109/37/5 234/38/5
f 174/39/5 122/27/5 125/22/5 186/40/5
f 102/41/4 97/42/4 118/43/4 113/44/4
f 234/45/6 109/37/6 85/46/6 149/47/6
f 110/48/5 105/49/5 126/50/5 121/51/5
f 97/52/4 74/53/4 51/54/4 118/55/4
f 186/56/3 129/57/3 134/58/3 198/59/3
f 98/60/6 246/61/6 146/62/6 75/63/6
f 142/64/6 39/65/6 106/36/6 222/66/6
f 101/67/5 211/68/5 246/69/5 98/60/5
f 86/70/5 110/71/5 121/72/5 62/73/5
f 105/49/5 38/74/5 15/75/5 126/50/5
f 234/76/6 149/47/6 146/62/6 246/77/6
f 223/78/4 233/79/4 175/80/4 185/81/4
f 235/82/1 245/83/1 161/84/1 173/85/1
f 130/86/1 141/16/1 138/3/1 133/87/1
f 158/88/3 174/89/3 163/90/3 153/91/3
f 150/9/2 157/12/2 154/7/2 145/6/2
f 142/64/6 222/92/6 211/93/6 137/94/6
f 26/95/6 137/94/6 211/96/6 101/67/6
f 247/97/5 210/98/5 199/99/5 162/100/5
f 209/101/2 221/102/2 187/103/2 197/104/2
f 1/1/7 4/105/7 6/106/7 5/107/7
f 4/108/8 8/109/8 9/110/8 6/111/8
f 2/112/9 7/113/9 9/110/9 8/109/9
f 7/113/10 11/114/10 12/115/10 9/110/10
f 3/34/11 10/116/11 12/117/11 11/118/11
f 10/119/12 5/107/12 6/106/12 12/120/12
f 6/111/13 9/110/13 12/115/13
f 13/14/14 16/121/14 18/122/14 17/123/14
f 16/121/15 20/124/15 21/125/15 18/122/15
f 14/23/16 19/126/16 21/127/16 20/128/16
f 19/126/17 23/129/17 24/130/17 21/127/17
f 15/75/18 22/131/18 24/132/18 23/133/18
f 22/134/19 17/123/19 18/122/19 24/135/19
f 18/122/20 21/125/20 24/135/20
f 25/4/21 28/136/21 30/137/21 29/138/21
f 28/136/22 32/139/22 33/140/22 30/137/22
f 26/95/23 31/141/23 33/140/23 32/139/23
f 31/142/24 35/143/24 36/144/24 33/145/24
f 27/146/25 34/147/25 36/144/25 35/143/25
f 34/147/26 29/148/26 30/149/26 36/144/26
f 30/149/27 33/145/27 36/144/27
f 37/15/28 40/150/28 42/151/28 41/152/28
f 40/150/29 44/153/29 45/154/29 42/151/29
f 38/74/30 43/155/30 45/156/30 44/157/30
f 43/158/31 47/159/31 48/160/31 45/161/31
f 39/65/32 46/162/32 48/160/32 47/159/32
f 46/162/33 41/152/33 42/151/33 48/160/33
f 42/151/34 45/154/34 48/163/34
f 49/8/35 52/164/35 54/165/35 53/166/35
f 52/164/36 56/167/36 57/168/36 54/165/36
f 50/17/37 55/169/37 57/168/37 56/167/37
f 55/170/38 59/171/38 60/172/38 57/173/38
f 51/54/39 58/174/39 60/172/39 59/171/39
f 58/174/40 53/166/40 54/165/40 60/172/40
f 54/175/41 57/173/41 60/172/41
f 61/11/42 64/176/42 66/177/42 65/178/42
f 64/176/43 68/179/43 69/180/43 66/177/43
f 62/73/44 67/181/44 69/180/44 68/179/44
f 67/182/45 71/183/45 72/184/45 69/185/45
f 63/26/46 70/186/46 72/184/46 71/183/46
f 70/186/47 65/178/47 66/177/47 72/184/47
f 66/187/48 69/185/48 72/184/48
f 73/5/49 76/188/49 78/189/49 77/190/49
f 76/188/50 80/191/50 81/192/50 78/189/50
f 74/53/51 79/193/51 81/192/51 80/191/51
f 79/193/52 83/194/52 84/195/52 81/192/52
f 75/63/53 82/196/53 84/197/53 83/198/53
f 82/196/54 77/190/54 78/189/54 84/197/54
f 78/199/55 81/192/55 84/195/55
f 85/46/56 88/200/56 90/201/56 89/202/56
f 88/200/57 92/203/57 93/204/57 90/201/57
f 86/70/58 91/205/58 93/206/58 92/207/58
f 91/205/59 95/208/59 96/209/59 93/206/59
f 87/10/60 94/210/60 96/209/60 95/208/60
f 94/210/61 89/202/61 90/201/61 96/209/61
f 90/201/62 93/204/62 96/211/62
f 161/84/63 164/212/63 166/213/63 165/214/63
f 164/212/64 168/215/64 169/216/64 166/213/64
f 162/100/65 167/217/65 169/216/65 168/215/65
f 167/217/66 171/218/66 172/219/66 169/216/66
f 163/90/67 170/220/67 172/219/67 171/218/67
f 170/220/68 165/214/68 166/213/68 172/219/68
f 166/213/69 169/216/69 172/219/69
f 173/85/70 176/221/70 178/222/70 177/223/70
f 176/221/71 180/224/71 181/225/71 178/222/71
f 174/39/72 179/226/72 181/225/72 180/224/72
f 179/226/73 183/227/73 184/228/73 181/225/73
f 175/80/74 182/229/74 184/228/74 183/227/74
f 182/229/75 177/223/75 178/222/75 184/228/75
f 178/222/76 181/225/76 184/228/76
f 185/81/77 188/230/77 190/231/77 189/232/77
f 188/230/78 192/233/78 193/234/78 190/231/78
f 186/56/79 191/235/79 193/234/79 192/233/79
f 191/235/80 195/236/80 196/237/80 193/234/80
f 187/103/81 194/238/81 196/237/81 195/236/81
f 194/238/82 189/232/82 190/231/82 196/237/82
f 190/231/83 193/234/83 196/237/83
f 197/104/84 200/239/84 202/240/84 201/241/84
f 200/239/85 204/242/85 205/243/85 202/240/85
f 198/30/86 203/244/86 205/243/86 204/242/86
f 203/244/87 207/245/87 208/246/87 205/243/87
f 199/99/88 206/247/88 208/246/88 207/245/88
f 206/247/89 201/241/89 202/240/89 208/246/89
f 202/240/90 205/243/90 208/246/90
f 209/101/91 212/248/91 214/249/91 213/250/91
f 212/248/92 216/251/92 217/252/92 214/249/92
f 210/98/93 215/253/93 217/252/93 216/251/93
f 215/253/94 219/254/94 220/255/94 217/252/94
f 211/93/95 218/256/95 220/255/95 219/254/95
f 218/256/96 213/250/96 214/249/96 220/255/96
f 214/249/97 217/252/97 220/255/97
f 221/102/98 224/257/98 226/258/98 225/259/98
f 224/257/99 228/260/99 229/261/99 226/258/99
f 222/35/100 227/262/100 229/261/100 228/260/100
f 227/262/101 231/263/101 232/264/101 229/261/101
f 223/78/102 230/265/102 232/264/102 231/263/102
f 230/265/103 225/259/103 226/258/103 232/264/103
f 226/258/104 229/261/104 232/264/104
f 233/79/105 236/266/105 238/267/105 237/268/105
f 236/266/106 240/269/106 241/270/106 238/267/106
f 234/76/107 239/271/107 241/270/107 240/269/107
f 239/271/108 243/272/108 244/273/108 241/270/108
f 235/82/109 242/274/109 244/273/109 243/272/109
f 242/274/110 237/268/110 238/267/110 244/273/110
f 238/267/111 241/270/111 244/273/111
f 245/83/112 248/275/112 250/276/112 249/277/112
f 248/275/113 252/278/113 253/279/113 250/276/113
f 246/69/114 251/280/114 253/279/114 252/278/114
f 251/280/115 255/281/115 256/282/115 253/279/115
f 247/97/116 254/283/116 256/282/116 255/281/116
f 254/283/117 249/277/117 250/276/117 256/282/117
f 250/276/118 253/279/118 256/282/118
f 27/146/119 2/112/119 8/109/119 34/147/119
f 34/147/120 8/109/120 4/108/120 29/148/120
f 29/138/121 4/105/121 1/1/121 25/4/121
f 15/75/122 38/74/122 44/157/122 22/131/122
f 22/134/123 44/153/123 40/150/123 17/123/123
f 17/123/124 40/150/124 37/15/124 13/14/124
f 102/41/125 27/146/125 35/143/125 104/284/125
f 104/284/126 35/143/126 31/142/126 103/285/126
f 103/286/127 31/141/127 26/95/127 101/67/127
f 110/71/128 86/70/128 92/207/128 112/287/128
f 112/288/129 92/203/129 88/200/129 111/289/129
f 111/289/130 88/200/130 85/46/130 109/37/130
f 51/54/131 74/53/131 80/191/131 58/174/131
f 58/174/132 80/191/132 76/188/132 53/166/132
f 53/166/133 76/188/133 73/5/133 49/8/133
f 86/70/134 62/73/134 68/179/134 91/205/134
f 91/205/135 68/179/135 64/176/135 95/208/135
f 95/208/136 64/176/136 61/11/136 87/10/136
f 118/55/137 51/54/137 59/171/137 120/290/137
f 120/290/138 59/171/138 55/170/138 119/291/138
f 119/292/139 55/169/139 50/17/139 117/20/139
f 126/50/140 15/75/140 23/133/140 128/293/140
f 128/294/141 23/129/141 19/126/141 127/295/141
f 127/295/142 19/126/142 14/23/142 125/22/142
f 74/53/125 97/52/125 99/296/125 79/193/125
f 79/193/126 99/296/126 100/297/126 83/194/126
f 83/198/127 100/298/127 98/60/127 75/63/127
f 97/42/143 102/41/143 104/299/143 99/300/143
f 99/300/126 104/299/126 103/285/126 100/297/126
f 100/298/127 103/286/127 101/67/127 98/60/127
f 38/74/128 105/49/128 107/301/128 43/155/128
f 43/158/129 107/302/129 108/303/129 47/159/129
f 47/159/130 108/303/130 106/36/130 39/65/130
f 105/49/144 110/48/144 112/287/144 107/301/144
f 107/302/129 112/288/129 111/289/129 108/303/129
f 108/303/130 111/289/130 109/37/130 106/36/130
f 2/112/137 113/44/137 115/304/137 7/113/137
f 7/113/138 115/304/138 116/305/138 11/114/138
f 11/118/139 116/306/139 114/31/139 3/34/139
f 113/44/145 118/43/145 120/307/145 115/308/145
f 115/308/138 120/307/138 119/291/138 116/305/138
f 116/306/139 119/292/139 117/20/139 114/31/139
f 62/73/140 121/72/140 123/309/140 67/181/140
f 67/182/141 123/310/141 124/311/141 71/183/141
f 71/183/142 124/311/142 122/27/142 63/26/142
f 121/51/146 126/50/146 128/293/146 123/309/146
f 123/310/141 128/294/141 127/295/141 124/311/141
f 124/311/142 127/295/142 125/22/142 122/27/142
f 211/93/147 222/92/147 228/312/147 218/256/147
f 218/256/148 228/312/148 224/257/148 213/250/148
f 213/250/149 224/257/149 221/102/149 209/101/149
f 222/35/150 234/38/150 240/313/150 227/262/150
f 227/262/126 240/313/126 236/266/126 231/263/126
f 231/263/151 236/266/151 233/79/151 223/78/151
f 234/76/152 246/77/152 252/314/152 239/271/152
f 239/271/153 252/314/153 248/275/153 243/272/153
f 243/272/154 248/275/154 245/83/154 235/82/154
f 246/69/155 211/68/155 219/315/155 251/280/155
f 251/280/129 219/315/129 215/253/129 255/281/129
f 255/281/156 215/253/156 210/98/156 247/97/156
f 138/3/157 141/16/157 143/316/157 140/317/157
f 140/317/153 143/316/153 144/318/153 139/319/153
f 139/319/158 144/318/158 142/64/158 137/94/158
f 163/90/159 174/89/159 180/320/159 170/220/159
f 170/220/160 180/320/160 176/221/160 165/214/160
f 165/214/161 176/221/161 173/85/161 161/84/161
f 174/39/162 186/40/162 192/321/162 179/226/162
f 179/226/138 192/321/138 188/230/138 183/227/138
f 183/227/163 188/230/163 185/81/163 175/80/163
f 186/56/164 198/59/164 204/322/164 191/235/164
f 191/235/165 204/322/165 200/239/165 195/236/165
f 195/236/166 200/239/166 197/104/166 187/103/166
f 198/30/167 163/29/167 171/323/167 203/244/167
f 203/244/141 171/323/141 167/217/141 207/245/141
f 207/245/168 167/217/168 162/100/168 199/99/168
f 154/7/169 157/12/169 159/324/169 156/325/169
f 156/325/165 159/324/165 160/326/165 155/327/165
f 155/327/170 160/326/170 158/88/170 153/91/170
f 130/86/171 133/87/171 135/328/171 132/329/171
f 132/329/160 135/328/160 136/330/160 131/331/160
f 131/332/172 136/333/172 134/58/172 129/57/172
f 146/62/173 149/47/173 151/334/173 148/335/173
f 148/335/148 151/334/148 152/336/148 147/337/148
f 147/337/174 152/336/174 150/9/174 145/6/174
f 13/14/175 130/13/175 132/329/175 16/121/175
f 16/121/176 132/329/176 131/331/176 20/124/176
f 20/128/177 131/332/177 129/24/177 14/23/177
f 3/34/177 134/33/177 136/333/177 10/116/177
f 10/119/178 136/330/178 135/328/178 5/107/178
f 5/107/179 135/328/179 133/2/179 1/1/179
f 137/94/180 26/95/180 32/139/180 139/319/180
f 139/319/181 32/139/181 28/136/181 140/317/181
f 140/317/182 28/136/182 25/4/182 138/3/182
f 39/65/180 142/64/180 144/318/180 46/162/180
f 46/162/183 144/318/183 143/316/183 41/152/183
f 41/152/184 143/316/184 141/16/184 37/15/184
f 145/6/185 73/5/185 77/190/185 147/337/185
f 147/337/186 77/190/186 82/196/186 148/335/186
f 148/335/187 82/196/187 75/63/187 146/62/187
f 149/47/187 85/46/187 89/202/187 151/334/187
f 151/334/188 89/202/188 94/210/188 152/336/188
f 152/336/189 94/210/189 87/10/189 150/9/189
f 63/26/190 158/25/190 160/326/190 70/186/190
f 70/186/191 160/326/191 159/324/191 65/178/191
f 65/178/192 159/324/192 157/12/192 61/11/192
f 153/18/190 50/17/190 56/167/190 155/327/190
f 155/327/193 56/167/193 52/164/193 156/325/193
f 156/325/194 52/164/194 49/8/194 154/7/194
f 161/84/195 245/83/195 249/277/195 164/212/195
f 164/212/123 249/277/123 254/283/123 168/215/123
f 168/215/196 254/283/196 247/97/196 162/100/196
f 209/101/197 197/104/197 201/241/197 212/248/197
f 212/248/135 201/241/135 206/247/135 216/251/135
f 216/251/198 206/247/198 199/99/198 210/98/198
f 175/80/199 233/79/199 237/268/199 182/229/199
f 182/229/120 237/268/120 242/274/120 177/223/120
f 177/223/200 242/274/200 235/82/200 173/85/200
f 223/78/201 185/81/201 189/232/201 230/265/201
f 230/265/132 189/232/132 194/238/132 225/259/132
f 225/259/202 194/238/202 187/103/202 221/102/202
f 27/146/4 102/41/4 113/44/4 2/112/4
o Cube.001
v -0.574390 0.765889 -0.033637
v 0.574390 0.765889 -0.033637
v 0.574390 -0.696334 -0.033637
v -0.574390 -0.696334 -0.033637
v -0.471208 -0.855410 -0.033637
v -0.471208 0.855410 -0.033637
v -0.471208 0.765889 -0.125767
v -0.471208 -0.696334 -0.125767
v 0.496711 -0.855410 -0.033637
v 0.496711 0.765889 -0.125767
v 0.496711 -0.696334 -0.125767
v 0.496711 0.855410 -0.033637
v 0.006548 0.855410 -0.033637
v 0.018955 0.855410 -0.033637
v 0.018955 -0.855410 -0.033637
v 0.006548 -0.855410 -0.033637
v 0.018955 0.765889 -0.125767
v 0.006548 0.765889 -0.125767
v 0.018955 -0.696334 -0.125767
v 0.006548 -0.696334 -0.125767
v -0.568186 -0.855410 -0.033637
v -0.574390 -0.846171 -0.033637
v -0.574390 0.846171 -0.033637
v -0.568186 0.855410 -0.033637
v -0.568186 -0.855410 -0.125269
v -0.574390 -0.846171 -0.125269
v -0.568186 -0.846171 -0.125767
v -0.568186 0.855410 -0.125269
v -0.568186 0.846171 -0.125767
v -0.574390 0.846171 -0.125269
v 0.574390 -0.846171 -0.033637
v 0.568186 -0.855410 -0.033637
v 0.568186 0.855410 -0.033637
v 0.574390 0.846171 -0.033637
v 0.568186 -0.846171 -0.125767
v 0.574390 -0.846171 -0.125269
v 0.568186 -0.855410 -0.125269
v 0.568186 0.846171 -0.125767
v 0.568186 0.855410 -0.125269
v 0.574390 0.846171 -0.125269
v -0.568186 0.765889 -0.125767
v -0.574390 0.765889 -0.125269
v 0.574390 0.765889 -0.125269
v 0.568186 0.765889 -0.125767
v -0.574390 -0.696334 -0.125269
v -0.568186 -0.696334 -0.125767
v 0.568186 -0.696334 -0.125767
v 0.574390 -0.696334 -0.125269
v -0.471208 -0.846171 -0.125767
v -0.471208 -0.855410 -0.125269
v -0.471208 0.855410 -0.125269
v -0.471208 0.846171 -0.125767
v -0.465004 0.756650 -0.033637
v -0.465004 0.765889 -0.033139
v -0.471208 0.756650 -0.033139
v -0.465004 -0.687095 -0.033637
v -0.471208 -0.687095 -0.033139
v -0.465004 -0.696334 -0.033139
v 0.496711 0.846171 -0.125767
v 0.496711 0.855410 -0.125269
v 0.496711 -0.855410 -0.125269
v 0.496711 -0.846171 -0.125767
v 0.490507 0.756650 -0.033637
v 0.496711 0.756650 -0.033139
v 0.490507 0.765889 -0.033139
v 0.490507 -0.687095 -0.033637
v 0.490507 -0.696334 -0.033139
v 0.496711 -0.687095 -0.033139
v -0.574390 0.765889 0.001003
v -0.568186 0.765889 0.001500
v -0.574390 0.846171 0.001003
v -0.568186 0.846171 0.001500
v -0.568186 0.855410 0.001003
v 0.574390 -0.696334 0.001003
v 0.568186 -0.696334 0.001500
v 0.574390 -0.846171 0.001003
v 0.568186 -0.846171 0.001500
v 0.568186 -0.855410 0.001003
v 0.496711 -0.846171 0.001500
v 0.496711 -0.855410 0.001003
v -0.471208 0.846171 0.001500
v -0.471208 0.855410 0.001003
v -0.574390 -0.696334 0.001003
v -0.568186 -0.696334 0.001500
v 0.568186 0.855410 0.001003
v 0.568186 0.846171 0.001500
v 0.574390 0.846171 0.001003
v 0.568186 0.765889 0.001500
v 0.574390 0.765889 0.001003
v -0.471208 0.756650 0.001003
v -0.465004 0.765889 0.001003
v -0.477411 0.775128 0.001500
v -0.568186 -0.855410 0.001003
v -0.568186 -0.846171 0.001500
v -0.574390 -0.846171 0.001003
v -0.471208 -0.687095 0.001003
v -0.477411 -0.705572 0.001500
v -0.465004 -0.696334 0.001003
v -0.471208 -0.855410 0.001003
v -0.471208 -0.846171 0.001500
v 0.496711 0.855410 0.001003
v 0.496711 0.846171 0.001500
v 0.496711 0.756650 0.001003
v 0.502914 0.775128 0.001500
v 0.490507 0.765889 0.001003
v 0.496711 -0.687095 0.001003
v 0.490507 -0.696334 0.001003
v 0.502914 -0.705572 0.001500
v 0.006548 -0.855410 -0.125269
v 0.006548 -0.846171 -0.125767
v 0.018955 -0.846171 -0.125767
v 0.018955 -0.855410 -0.125269
v 0.006548 0.756650 -0.034134
v 0.012751 0.765889 -0.033139
v 0.000344 0.756650 -0.033637
v 0.018955 0.756650 -0.034134
v 0.025159 0.756650 -0.033637
v 0.012751 0.765889 -0.033139
v 0.018955 -0.687095 -0.034134
v 0.012751 -0.696334 -0.033139
v 0.025159 -0.687095 -0.033637
v 0.006548 -0.687095 -0.034134
v 0.000344 -0.687095 -0.033637
v 0.012751 -0.696334 -0.033139
v 0.006548 0.846171 -0.125767
v 0.006548 0.855410 -0.125269
v 0.018955 0.855410 -0.125269
v 0.018955 0.846171 -0.125767
v 0.018955 0.846171 0.001500
v 0.018955 0.855410 0.001003
v 0.006548 0.855410 0.001003
v 0.006548 0.846171 0.001500
v 0.018955 0.765889 0.001003
v 0.018955 0.775128 0.001500
v 0.006548 0.775128 0.001500
v 0.006548 0.765889 0.001003
v 0.006548 -0.696334 0.001003
v 0.006548 -0.705572 0.001500
v 0.018955 -0.705572 0.001500
v 0.018955 -0.696334 0.001003
v 0.006548 -0.846171 0.001500
v 0.006548 -0.855410 0.001003
v 0.018955 -0.855410 0.001003
v 0.018955 -0.846171 0.001500
v 0.012751 -0.696334 -0.058025
v 0.018955 -0.687095 -0.058025
v 0.012751 -0.687095 -0.058523
v 0.012751 -0.696334 -0.058025
v 0.012751 -0.687095 -0.058523
v 0.006548 -0.687095 -0.058025
v 0.012751 0.765889 -0.058025
v 0.006548 0.756650 -0.058025
v 0.012751 0.756650 -0.058523
v 0.012751 0.765889 -0.058025
v 0.012751 0.756650 -0.058523
v 0.018955 0.756650 -0.058025
vn -0.0000 1.0000 -0.0000
vn -1.0000 -0.0000 -0.0000
vn -0.0000 -1.0000 -0.0000
vn -0.0000 -0.0000 -1.0000
vn 1.0000 -0.0000 -0.0000
vn -0.0000 -0.0000 1.0000
vn -0.0798 -0.0536 -0.9954
vn -0.0798 0.0536 -0.9954
vn 0.0798 -0.0536 -0.9954
vn 0.0798 0.0536 -0.9954
vn 0.0798 -0.0536 0.9954
vn 0.0798 0.0536 0.9954
vn -0.0798 -0.0536 0.9954
vn -0.0798 0.0536 0.9954
vn 0.0267 -0.0179 0.9995
vn 0.0267 0.0179 0.9995
vn -0.0267 -0.0179 0.9995
vn -0.0267 0.0179 0.9995
vn 0.0789 -0.1590 0.9841
vn -0.0789 -0.1590 0.9841
vn -0.0789 0.1590 0.9841
vn 0.0789 0.1590 0.9841
vn -0.8302 -0.5575 -0.0000
vn -0.8302 0.5575 -0.0000
vn -0.0799 -0.0000 -0.9968
vn -0.0000 -0.0538 -0.9986
vn -0.0000 0.0538 -0.9986
vn 0.0799 -0.0000 -0.9968
vn 0.8302 -0.5575 -0.0000
vn 0.8302 0.5575 -0.0000
vn 0.0799 -0.0000 0.9968
vn -0.0799 -0.0000 0.9968
vn -0.0000 -0.0538 0.9986
vn -0.0000 0.0538 0.9986
vn -0.0000 0.0742 0.9972
vn -0.0000 -0.0742 0.9972
vt 0.852545 0.501350
vt 0.873650 0.501350
vt 0.873650 0.750000
vt 0.852545 0.750000
vt 0.387265 0.000000
vt 0.500000 0.000000
vt 0.500000 0.248650
vt 0.387265 0.248650
vt 0.626350 0.750000
vt 0.641905 0.750000
vt 0.626350 0.750000
vt 0.358095 0.501350
vt 0.373650 0.501350
vt 0.373650 0.750000
vt 0.358095 0.750000
vt 0.373650 0.750000
vt 0.873650 0.750000
vt 0.852545 0.750000
vt 0.500000 0.379125
vt 0.612100 0.379125
vt 0.612100 0.483095
vt 0.500000 0.483095
vt 0.387265 0.483095
vt 0.500000 0.498650
vt 0.387265 0.498650
vt 0.375712 0.272455
vt 0.387265 0.272455
vt 0.387265 0.376425
vt 0.375712 0.376425
vt 0.387265 0.251350
vt 0.500000 0.251350
vt 0.500000 0.272455
vt 0.126350 0.750000
vt 0.147455 0.750000
vt 0.126350 0.750000
vt 0.612100 0.498650
vt 0.375712 0.750000
vt 0.387265 0.750000
vt 0.375712 0.750000
vt 0.612100 0.000000
vt 0.612100 0.248650
vt 0.612100 0.000000
vt 0.612100 0.251350
vt 0.612100 0.272455
vt 0.387265 0.501350
vt 0.500000 0.501350
vt 0.500000 0.750000
vt 0.387265 0.768255
vt 0.387265 0.872225
vt 0.387265 0.870875
vt 0.387265 0.379125
vt 0.375712 0.379125
vt 0.375712 0.000000
vt 0.375712 0.248650
vt 0.512900 0.765555
vt 0.612100 0.766905
vt 0.612100 0.870875
vt 0.512900 0.870875
vt 0.375712 0.501350
vt 0.612100 0.501350
vt 0.612100 0.750000
vt 0.375712 0.483095
vt 0.375712 0.498650
vt 0.387265 0.751350
vt 0.500000 0.751350
vt 0.500712 0.765555
vt 0.386552 0.765555
vt 0.612100 0.376425
vt 0.500000 0.376425
vt 0.748575 0.501350
vt 0.748575 0.750000
vt 0.387977 0.874925
vt 0.499288 0.874925
vt 0.499288 0.976195
vt 0.387977 0.976195
vt 0.512900 0.978895
vt 0.612100 0.977545
vt 0.612100 0.998650
vt 0.500000 0.998650
vt 0.612100 0.751350
vt 0.512900 0.873575
vt 0.612100 0.873575
vt 0.745875 0.750000
vt 0.745875 0.750000
vt 0.375712 0.873575
vt 0.386552 0.873575
vt 0.386552 0.978895
vt 0.375712 0.977545
vt 0.375712 0.751350
vt 0.375712 0.766905
vt 0.254125 0.750000
vt 0.254125 0.750000
vt 0.500000 0.976195
vt 0.500000 0.872225
vt 0.500000 0.873575
vt 0.500000 0.768255
vt 0.500000 0.768255
vt 0.500000 0.870875
vt 0.641905 0.501350
vt 0.745875 0.501350
vt 0.626350 0.501350
vt 0.375712 0.251350
vt 0.500712 0.978895
vt 0.387265 0.998650
vt 0.499288 0.766905
vt 0.387977 0.766905
vt 0.251425 0.750000
vt 0.251425 0.750000
vt 0.386552 0.870875
vt 0.375712 0.870875
vt 0.254125 0.501350
vt 0.387977 0.768255
vt 0.499288 0.768255
vt 0.499288 0.869525
vt 0.387977 0.869525
vt 0.387265 0.976195
vt 0.387265 0.976195
vt 0.387265 0.873575
vt 0.387977 0.977545
vt 0.499288 0.977545
vt 0.375712 0.998650
vt 0.499288 0.873575
vt 0.387977 0.873575
vt 0.387977 0.873575
vt 0.499288 0.873575
vt 0.500000 0.872225
vt 0.251425 0.501350
vt 0.499288 0.872225
vt 0.387977 0.872225
vt 0.387977 0.870875
vt 0.499288 0.870875
vt 0.499288 0.870875
vt 0.387977 0.870875
vt 0.147455 0.501350
vt 0.126350 0.501350
vt 0.125000 0.501350
vt 0.126350 0.500000
vt 0.625000 0.251350
vt 0.612100 0.250000
vt 0.375712 0.500000
vt 0.375000 0.498650
vt 0.625000 0.498650
vt 0.612100 0.500000
vt 0.625000 0.000000
vt 0.375000 0.751350
vt 0.625000 0.751350
vt 0.125000 0.750000
vt 0.625000 0.248650
vt 0.147455 0.500000
vt 0.625000 0.483095
vt 0.625000 0.272455
vt 0.358095 0.500000
vt 0.373650 0.500000
vt 0.625000 0.977545
vt 0.625000 0.998650
vt 0.625000 0.766905
vt 0.625000 0.870875
vt 0.625000 0.873575
vt 0.625000 0.376425
vt 0.625000 0.379125
vt 0.251425 0.500000
vt 0.254125 0.500000
s 0
f 307/338/203 284/339/203 280/340/203 262/341/203
f 260/342/204 257/343/204 298/344/204 301/345/204
f 289/346/203 268/347/203 357/347/203 341/348/203
f 317/349/205 293/350/205 288/351/205 265/352/205
f 265/352/205 288/351/205 334/353/205 336/352/205
f 262/341/203 280/340/203 329/354/203 338/355/203
f 273/356/206 384/357/206 315/358/206 266/359/206
f 267/360/206 266/359/206 300/361/206 303/362/206
f 305/363/206 264/364/206 276/365/206 366/366/206
f 302/367/206 297/368/206 263/369/206 264/364/206
f 277/370/205 261/371/205 355/371/205 349/372/205
f 266/359/206 315/358/206 294/373/206 300/361/206
f 287/374/207 259/375/207 330/375/207 332/376/207
f 257/343/204 279/377/204 286/378/204 298/344/204
f 279/377/204 257/343/204 325/343/204 327/379/204
f 297/368/206 285/380/206 308/381/206 263/369/206
f 304/382/207 299/383/207 258/384/207 259/375/207
f 323/385/203 376/386/203 396/387/203 363/385/203
f 275/388/206 367/389/206 366/366/206 276/365/206
f 278/390/204 260/342/204 301/345/204 282/391/204
f 360/392/208 358/393/208 385/394/208 390/395/208
f 292/396/207 304/382/207 259/375/207 287/374/207
f 260/342/204 278/390/204 351/390/204 339/342/204
f 299/383/207 296/397/207 290/398/207 258/384/207
f 318/399/206 267/360/206 303/362/206 291/400/206
f 331/401/208 344/402/208 360/403/208 364/404/208
f 263/369/206 308/381/206 381/405/206 274/406/206
f 264/364/206 263/369/206 274/406/206 276/365/206
f 382/407/203 307/338/203 262/341/203 269/408/203
f 379/409/208 371/410/208 309/411/208 312/412/208
f 259/375/207 258/384/207 345/384/207 330/375/207
f 348/413/208 337/414/208 328/415/208 326/416/208
f 344/402/208 342/417/208 358/393/208 360/392/208
f 391/418/208 388/419/208 337/414/208 348/413/208
f 268/347/203 270/420/203 386/421/203 357/347/203
f 397/422/208 394/423/208 353/424/208 356/425/208
f 333/426/208 331/401/208 364/404/208 335/427/208
f 271/428/205 265/352/205 336/352/205 399/429/205
f 310/430/205 370/431/205 392/432/205 347/430/205
f 374/431/205 321/433/205 361/434/205 389/435/205
f 316/436/203 383/437/203 270/420/203 268/347/203
f 295/438/203 316/436/203 268/347/203 289/346/203
f 283/439/206 302/367/206 264/364/206 305/363/206
f 258/384/207 290/398/207 343/398/207 345/384/207
f 353/424/208 348/440/208 326/416/208 340/441/208
f 257/343/204 260/342/204 339/342/204 325/343/204
f 367/389/206 275/388/206 267/360/206 318/399/206
f 320/442/204 324/443/204 362/443/204 359/442/204
f 261/371/205 272/444/205 398/445/205 355/371/205
f 335/427/208 364/404/208 395/446/208 400/447/208
f 368/448/205 317/349/205 265/352/205 271/428/205
f 269/408/203 262/341/203 338/355/203 387/408/203
f 322/449/208 319/450/208 373/451/208 377/452/208
f 275/388/206 273/356/206 266/359/206 267/360/206
f 380/386/203 314/453/203 354/454/203 393/455/203
f 313/456/207 311/457/207 346/457/207 352/456/207
f 356/425/208 353/424/208 340/441/208 350/458/208
f 382/407/203 269/408/203 270/420/203 383/437/203
f 369/459/207 378/460/207 406/461/207 408/462/207
f 394/423/208 397/422/208 400/447/208 395/446/208
f 271/428/205 399/429/205 398/445/205 272/444/205
f 269/408/203 387/408/203 386/421/203 270/420/203
f 374/431/205 370/431/205 407/463/205 410/463/205
f 273/356/206 275/388/206 276/365/206 274/406/206
f 368/448/205 271/428/205 272/444/205 365/464/205
f 409/465/208 405/466/208 403/466/208 411/465/208
f 384/357/206 273/356/206 274/406/206 381/405/206
f 375/467/204 372/468/204 412/469/204 402/470/204
f 388/419/208 391/418/208 390/395/208 385/394/208
f 306/471/205 365/464/205 272/444/205 261/371/205
f 374/431/205 389/435/205 392/432/205 370/431/205
f 380/386/203 393/455/203 396/387/203 376/386/203
f 380/386/203 376/386/203 401/386/203 404/386/203
f 281/472/209 282/473/209 283/474/209
f 284/475/210 285/380/210 286/476/210
f 291/400/211 292/477/211 293/478/211
f 294/373/212 295/479/212 296/480/212
f 309/411/213 310/430/213 311/457/213
f 312/412/214 313/456/214 314/453/214
f 319/450/215 320/442/215 321/433/215
f 322/449/216 323/385/216 324/443/216
f 327/379/216 328/377/216 329/481/216
f 332/376/213 333/426/213 334/482/213
f 341/483/214 342/417/214 343/398/214
f 346/457/217 347/430/217 348/440/217
f 349/372/215 350/370/215 351/484/215
f 352/456/218 353/424/218 354/454/218
f 359/442/219 360/392/219 361/434/219
f 362/443/220 363/385/220 364/404/220
f 369/459/221 370/431/221 371/410/221
f 372/468/222 373/451/222 374/431/222
f 375/467/223 376/386/223 377/452/223
f 378/460/224 379/409/224 380/386/224
f 401/386/216 402/470/216 403/466/216
f 404/386/214 405/466/214 406/461/214
f 407/463/213 408/462/213 409/465/213
f 410/463/215 411/465/215 412/469/215
f 281/472/225 277/370/225 278/484/225 282/473/225
f 280/481/226 284/485/226 286/378/226 279/377/226
f 302/367/227 283/439/227 282/391/227 301/345/227
f 306/471/228 281/472/228 283/474/228 305/486/228
f 316/487/229 295/479/229 294/373/229 315/358/229
f 304/382/230 292/396/230 291/400/230 303/362/230
f 288/351/231 293/350/231 292/396/231 287/374/231
f 295/438/232 289/346/232 290/398/232 296/397/232
f 285/380/227 297/368/227 298/344/227 286/378/227
f 296/397/230 299/383/230 300/361/230 294/373/230
f 297/368/227 302/367/227 301/345/227 298/344/227
f 299/383/230 304/382/230 303/362/230 300/361/230
f 284/475/229 307/488/229 308/381/229 285/380/229
f 311/457/233 313/456/233 312/412/233 309/411/233
f 351/484/225 278/484/225 277/370/225 349/372/225
f 293/350/228 317/349/228 318/489/228 291/490/228
f 289/346/232 341/348/232 343/398/232 290/398/232
f 319/450/234 322/449/234 324/443/234 320/442/234
f 326/343/234 328/377/234 327/379/234 325/343/234
f 331/401/233 333/426/233 332/376/233 330/375/233
f 336/352/235 334/353/235 333/351/235 335/352/235
f 338/491/236 329/492/236 328/415/236 337/414/236
f 340/342/234 326/343/234 325/343/234 339/342/234
f 342/417/233 344/402/233 345/384/233 343/398/233
f 344/402/233 331/401/233 330/375/233 345/384/233
f 350/390/234 340/342/234 339/342/234 351/390/234
f 349/372/235 355/371/235 356/371/235 350/370/235
f 348/440/233 353/424/233 352/456/233 346/457/233
f 341/483/236 357/493/236 358/393/236 342/417/236
f 359/442/234 362/443/234 364/404/234 360/403/234
f 329/481/226 280/481/226 279/377/226 327/379/226
f 334/353/231 288/351/231 287/374/231 332/376/231
f 310/430/231 347/430/231 346/457/231 311/457/231
f 354/454/232 314/453/232 313/456/232 352/456/232
f 323/385/226 363/385/226 362/443/226 324/443/226
f 361/434/225 321/433/225 320/442/225 359/442/225
f 394/423/236 395/446/236 396/387/236 393/455/236
f 390/395/235 391/418/235 392/432/235 389/435/235
f 386/494/236 387/495/236 388/419/236 385/394/236
f 398/445/235 399/429/235 400/429/235 397/445/235
f 382/496/229 383/497/229 384/357/229 381/405/229
f 366/498/228 367/499/228 368/448/228 365/464/228
f 371/410/233 379/409/233 378/460/233 369/459/233
f 377/452/234 373/451/234 372/468/234 375/467/234
f 365/464/228 306/471/228 305/486/228 366/498/228
f 367/499/228 318/489/228 317/349/228 368/448/228
f 381/405/229 308/381/229 307/488/229 382/496/229
f 385/394/236 358/393/236 357/493/236 386/494/236
f 337/414/236 388/419/236 387/495/236 338/491/236
f 315/358/229 384/357/229 383/497/229 316/487/229
f 309/411/235 371/410/235 370/431/235 310/430/235
f 391/418/235 348/413/235 347/430/235 392/432/235
f 376/386/236 323/385/236 322/449/236 377/452/236
f 321/433/235 374/431/235 373/451/235 319/450/235
f 314/453/236 380/386/236 379/409/236 312/412/236
f 360/392/235 390/395/235 389/435/235 361/434/235
f 353/424/236 394/423/236 393/455/236 354/454/236
f 395/446/236 364/404/236 363/385/236 396/387/236
f 335/352/235 400/429/235 399/429/235 336/352/235
f 397/445/235 356/371/235 355/371/235 398/445/235
f 403/466/237 405/466/237 404/386/237 401/386/237
f 409/465/238 411/465/238 410/463/238 407/463/238
f 408/462/233 406/461/233 405/466/233 409/465/233
f 402/470/234 412/469/234 411/465/234 403/466/234
f 380/386/232 404/386/232 406/461/232 378/460/232
f 407/463/231 370/431/231 369/459/231 408/462/231
f 412/469/225 372/468/225 374/431/225 410/463/225
f 375/467/226 402/470/226 401/386/226 376/386/226
f 281/472/205 306/471/205 261/371/205 277/370/205
